<svg width="200" height="200" viewBox="0 0 200 200" fill="none" xmlns="http://www.w3.org/2000/svg">
<path fill-rule="evenodd" clip-rule="evenodd" d="M78.087 40C82.3606 40 86.2441 42.5514 88.035 46.5356L121.913 121.904L133.878 95.2856C135.669 91.3014 139.552 88.75 143.826 88.75H173.043C179.095 88.75 184 93.7868 184 100C184 106.213 179.095 111.25 173.043 111.25H150.836L131.861 153.464C130.07 157.449 126.187 160 121.913 160C117.639 160 113.756 157.449 111.965 153.464L78.087 78.0959L66.122 104.714C64.3311 108.699 60.4475 111.25 56.1739 111.25H26.9565C20.9054 111.25 16 106.213 16 100C16 93.7868 20.9054 88.75 26.9565 88.75H49.1636L68.1389 46.5356C69.9298 42.5514 73.8134 40 78.087 40Z" fill="black"/>
</svg>
