<svg width="200" height="200" viewBox="0 0 200 200" fill="none" xmlns="http://www.w3.org/2000/svg">
<path d="M37.5 104.167H29.1667C19.9619 104.167 12.5 111.628 12.5 120.833V162.5C12.5 171.705 19.9619 179.167 29.1667 179.167H37.5C46.7048 179.167 54.1667 171.705 54.1667 162.5V120.833C54.1667 111.628 46.7048 104.167 37.5 104.167Z" fill="black" stroke="black" stroke-width="10"/>
<path d="M104.167 62.5H95.8334C86.6287 62.5 79.1667 69.9619 79.1667 79.1667V162.5C79.1667 171.705 86.6287 179.167 95.8334 179.167H104.167C113.371 179.167 120.833 171.705 120.833 162.5V79.1667C120.833 69.9619 113.371 62.5 104.167 62.5Z" fill="black" stroke="black" stroke-width="10"/>
<path d="M170.833 20.8333H162.5C153.295 20.8333 145.833 28.2952 145.833 37.4999V162.5C145.833 171.705 153.295 179.167 162.5 179.167H170.833C180.038 179.167 187.5 171.705 187.5 162.5V37.4999C187.5 28.2952 180.038 20.8333 170.833 20.8333Z" fill="black" stroke="black" stroke-width="10"/>
<path fill-rule="evenodd" clip-rule="evenodd" d="M38.8696 13C40.6502 13 42.2684 14.0631 43.0146 15.7232L57.1304 47.1267L62.1158 36.0357C62.862 34.3756 64.4802 33.3125 66.2609 33.3125H78.4348C80.9561 33.3125 83 35.4112 83 38C83 40.5888 80.9561 42.6875 78.4348 42.6875H69.1818L61.2755 60.2768C60.5293 61.9369 58.9111 63 57.1304 63C55.3498 63 53.7316 61.9369 52.9854 60.2768L38.8696 28.8733L33.8842 39.9643C33.138 41.6244 31.5198 42.6875 29.7391 42.6875H17.5652C15.0439 42.6875 13 40.5888 13 38C13 35.4112 15.0439 33.3125 17.5652 33.3125H26.8182L34.7245 15.7232C35.4707 14.0631 37.0889 13 38.8696 13Z" fill="black"/>
</svg>
