<svg width="913" height="223" viewBox="0 0 913 223" fill="none" xmlns="http://www.w3.org/2000/svg">
<path d="M377 146.6C377.4 127 402.533 116.2 452.4 114.2H455.2L458.2 114V113C458.2 104.6 450.133 100.4 434 100.4C430.133 100.4 426.667 100.733 423.6 101.4C420.667 101.933 418.467 102.667 417 103.6C415.533 104.4 414.333 105.267 413.4 106.2C412.6 107 412.067 107.733 411.8 108.4L411.6 109.2H382.2L383.6 104C388 93.0667 397.867 85.8 413.2 82.2C419.467 80.7333 426.467 80 434.2 80C451.133 80 464.2 83 473.4 89C482.6 95 487.2 103.067 487.2 113.2L487.4 137.2V141.6C487.4 144.133 487.8 145.867 488.6 146.8C489.4 147.733 490.733 148.2 492.6 148.2H495.2V172H492.6C483 172 475.733 171.067 470.8 169.2C466 167.333 462.667 164 460.8 159.2C451.6 169.067 436.867 174 416.6 174C402.733 174 392.667 171.467 386.4 166.4C380.133 161.333 377 154.867 377 147C377 146.867 377 146.733 377 146.6ZM408 146.6C408 151.133 412.6 153.533 421.8 153.8C422.333 153.8 422.933 153.8 423.6 153.8C431.333 153.8 439 152.067 446.6 148.6C454.2 145.133 458.067 140.333 458.2 134.2V130.8C452.467 130.933 447.2 131.267 442.4 131.8C437.6 132.2 432.267 132.933 426.4 134C420.667 135.067 416.133 136.667 412.8 138.8C409.6 140.8 408 143.267 408 146.2C408 146.333 408 146.467 408 146.6ZM515.266 92.6C525.532 84.2 539.599 80 557.466 80C564.532 80 570.999 80.6667 576.866 82C582.732 83.2 587.532 84.8 591.266 86.8C594.999 88.6667 598.266 90.8 601.066 93.2C603.866 95.6 605.999 98 607.466 100.4C608.932 102.8 610.066 105 610.866 107C611.799 108.867 612.332 110.4 612.466 111.6L612.866 113.6H583.066C583.066 113.333 582.932 112.933 582.666 112.4C582.532 111.867 581.866 111 580.666 109.8C579.599 108.467 578.199 107.333 576.466 106.4C574.866 105.333 572.332 104.4 568.866 103.6C565.532 102.8 561.732 102.4 557.466 102.4C548.666 102.4 541.866 104.533 537.066 108.8C532.266 112.933 529.866 118.733 529.866 126.2C529.866 133.8 532.332 139.933 537.266 144.6C542.199 149.267 548.932 151.6 557.466 151.6C561.732 151.6 565.532 151.133 568.866 150.2C572.332 149.133 574.866 147.867 576.466 146.4C578.199 144.933 579.599 143.467 580.666 142C581.732 140.533 582.399 139.333 582.666 138.4L583.066 136.8H612.466C612.466 137.333 612.332 138.067 612.066 139C611.932 139.8 611.399 141.533 610.466 144.2C609.532 146.733 608.332 149.2 606.866 151.6C605.532 153.867 603.399 156.467 600.466 159.4C597.666 162.2 594.399 164.667 590.666 166.8C587.066 168.8 582.332 170.533 576.466 172C570.732 173.333 564.399 174 557.466 174C539.466 174 525.332 169.733 515.066 161.2C504.932 152.533 499.866 140.867 499.866 126.2C499.866 112.333 504.999 101.133 515.266 92.6ZM614.644 82H630.044V55.6H659.244V82H692.644V105.2H659.444V141C659.444 143.667 659.977 145.533 661.044 146.6C662.11 147.667 663.977 148.2 666.644 148.2H692.844V172H666.644C652.377 172 642.71 170 637.644 166C632.577 162 630.044 153.667 630.044 141V105.2H614.644V82ZM735.066 82V172H705.666V82H735.066ZM703.266 57.4C703.266 52.6 704.932 48.5333 708.266 45.2C711.599 41.7333 715.599 40 720.266 40C725.066 40 729.132 41.7333 732.466 45.2C735.799 48.5333 737.466 52.6 737.466 57.4C737.466 62.0667 735.799 66.0667 732.466 69.4C729.132 72.7333 725.066 74.4 720.266 74.4C715.599 74.4 711.599 72.7333 708.266 69.4C704.932 66.0667 703.266 62.0667 703.266 57.4ZM773.936 82L806.536 146.4L839.336 82H870.936L821.136 172H791.936L742.336 82H773.936Z" fill="black"/>
<path fill-rule="evenodd" clip-rule="evenodd" d="M287 84C290.901 84 294.445 86.2679 296.08 89.8094L317 135.137L322.92 122.309C324.555 118.768 328.099 116.5 332 116.5H352C357.523 116.5 362 120.977 362 126.5C362 132.023 357.523 136.5 352 136.5H338.398L326.08 163.191C324.445 166.732 320.901 169 317 169C313.099 169 309.555 166.732 307.92 163.191L287 117.863L281.08 130.691C279.445 134.232 275.901 136.5 272 136.5H252C246.477 136.5 242 132.023 242 126.5C242 120.977 246.477 116.5 252 116.5H265.602L277.92 89.8094C279.555 86.2679 283.099 84 287 84Z" fill="black"/>
<path d="M72 82V98.4C77.6 87.4667 86.6 82 99 82H117.8V105.2H99.6C88.2667 105.2 80.9333 108.067 77.6 113.8C74.2667 119.4 72.6 130.8 72.6 148V172H43V82H72ZM131.572 93.2C141.438 84.4 154.839 80 171.772 80C179.505 80 186.705 81.0667 193.372 83.2C200.172 85.2 206.305 88.3333 211.772 92.6C217.239 96.7333 221.172 102.067 223.572 108.6C225.972 115 227.172 121.6 227.172 128.4C227.172 130.667 227.039 133.067 226.772 135.6H145.172C146.372 140.533 149.439 144.533 154.372 147.6C159.439 150.667 165.439 152.2 172.372 152.2C176.239 152.2 179.705 151.933 182.772 151.4C185.839 150.867 188.172 150.267 189.772 149.6C191.372 148.8 192.639 148.067 193.572 147.4C194.639 146.6 195.305 145.933 195.572 145.4L195.972 144.6H225.572C225.439 145.4 225.105 146.467 224.572 147.8C224.039 149.133 222.572 151.467 220.172 154.8C217.772 158.133 214.772 161.133 211.172 163.8C207.705 166.333 202.505 168.667 195.572 170.8C188.772 172.933 180.972 174 172.172 174C155.772 174 142.438 169.733 132.172 161.2C121.905 152.667 116.772 141.333 116.772 127.2C116.772 113.333 121.705 102 131.572 93.2ZM199.172 116.8C198.905 112.133 196.239 108.467 191.172 105.8C186.105 103.133 179.705 101.8 171.972 101.8C164.905 101.8 158.972 103.2 154.172 106C149.505 108.8 146.572 112.4 145.372 116.8H199.172Z" fill="black"/>
</svg>
